<?xml version="1.0" encoding="UTF-8" standalone="no"?>
<!DOCTYPE svg PUBLIC "-//W3C//DTD SVG 1.1//EN"
 "http://www.w3.org/Graphics/SVG/1.1/DTD/svg11.dtd">
<!-- Generated by graphviz version 13.1.0 (20250701.0955)
 -->
<!-- Title: ccs811 driver function Pages: 1 -->
<svg width="285pt" height="328pt"
 viewBox="0.00 0.00 285.00 328.00" xmlns="http://www.w3.org/2000/svg" xmlns:xlink="http://www.w3.org/1999/xlink">
<g id="graph0" class="graph" transform="scale(1 1) rotate(0) translate(4 324)">
<title>ccs811 driver function</title>
<!-- Node4 -->
<g id="Node000004" class="node">
<title>Node4</title>
<g id="a_Node000004"><a xlink:href="group__ccs811__app__driver.html" target="_top" xlink:title="ccs811 app driver modules">
<polygon fill="white" stroke="#666666" points="277.25,-320 147.25,-320 147.25,-300 277.25,-300 277.25,-320"/>
<text xml:space="preserve" text-anchor="middle" x="212.25" y="-306.5" font-family="Helvetica,sans-Serif" font-size="10.00">ccs811 app driver function</text>
</a>
</g>
</g>
<!-- Node3 -->
<g id="Node000003" class="node">
<title>Node3</title>
<g id="a_Node000003"><a xlink:href="group__ccs811__base__driver.html" target="_top" xlink:title="ccs811 base driver modules">
<polygon fill="white" stroke="#666666" points="261.12,-282 163.38,-282 163.38,-250 261.12,-250 261.12,-282"/>
<text xml:space="preserve" text-anchor="start" x="171.38" y="-268.5" font-family="Helvetica,sans-Serif" font-size="10.00">ccs811 base driver</text>
<text xml:space="preserve" text-anchor="middle" x="212.25" y="-256.5" font-family="Helvetica,sans-Serif" font-size="10.00"> function</text>
</a>
</g>
</g>
<!-- Node1 -->
<g id="Node000001" class="node">
<title>Node1</title>
<g id="a_Node000001"><a xlink:title="ccs811 driver modules">
<polygon fill="#999999" stroke="#666666" points="111.25,-176 0,-176 0,-156 111.25,-156 111.25,-176"/>
<text xml:space="preserve" text-anchor="middle" x="55.62" y="-162.5" font-family="Helvetica,sans-Serif" font-size="10.00">ccs811 driver function</text>
</a>
</g>
</g>
<!-- Node1&#45;&gt;Node4 -->
<g id="edge3" class="edge">
<title>Node1&#45;&gt;Node4</title>
<path fill="none" stroke="black" d="M66,-186.28C79.85,-214.03 108.41,-263.5 147.25,-291 152.07,-294.42 157.52,-297.22 163.14,-299.53"/>
<polygon fill="black" stroke="black" points="69.28,-185.01 61.78,-177.53 62.97,-188.05 69.28,-185.01"/>
</g>
<!-- Node1&#45;&gt;Node3 -->
<g id="edge2" class="edge">
<title>Node1&#45;&gt;Node3</title>
<path fill="none" stroke="black" d="M75.08,-184.32C92.51,-200.84 119.97,-224.95 147.25,-241 152.49,-244.09 158.19,-246.93 163.94,-249.52"/>
<polygon fill="black" stroke="black" points="77.65,-181.93 68.02,-177.5 72.78,-186.97 77.65,-181.93"/>
</g>
<!-- Node7 -->
<g id="Node000007" class="node">
<title>Node7</title>
<g id="a_Node000007"><a xlink:href="group__ccs811__example__driver.html" target="_top" xlink:title="ccs811 example driver modules">
<polygon fill="white" stroke="#666666" points="269,-232 155.5,-232 155.5,-200 269,-200 269,-232"/>
<text xml:space="preserve" text-anchor="start" x="163.5" y="-218.5" font-family="Helvetica,sans-Serif" font-size="10.00">ccs811 example driver</text>
<text xml:space="preserve" text-anchor="middle" x="212.25" y="-206.5" font-family="Helvetica,sans-Serif" font-size="10.00"> function</text>
</a>
</g>
</g>
<!-- Node1&#45;&gt;Node7 -->
<g id="edge6" class="edge">
<title>Node1&#45;&gt;Node7</title>
<path fill="none" stroke="black" d="M99.94,-180.01C118.69,-186.07 140.78,-193.21 160.31,-199.53"/>
<polygon fill="black" stroke="black" points="101.07,-176.69 90.48,-176.95 98.92,-183.35 101.07,-176.69"/>
</g>
<!-- Node5 -->
<g id="Node000005" class="node">
<title>Node5</title>
<g id="a_Node000005"><a xlink:href="group__ccs811__extern__driver.html" target="_top" xlink:title="ccs811 extern driver modules">
<polygon fill="white" stroke="#666666" points="264.12,-182 160.38,-182 160.38,-150 264.12,-150 264.12,-182"/>
<text xml:space="preserve" text-anchor="start" x="168.38" y="-168.5" font-family="Helvetica,sans-Serif" font-size="10.00">ccs811 extern driver</text>
<text xml:space="preserve" text-anchor="middle" x="212.25" y="-156.5" font-family="Helvetica,sans-Serif" font-size="10.00"> function</text>
</a>
</g>
</g>
<!-- Node1&#45;&gt;Node5 -->
<g id="edge4" class="edge">
<title>Node1&#45;&gt;Node5</title>
<path fill="none" stroke="black" d="M122.87,-166C135.33,-166 148.18,-166 160.09,-166"/>
<polygon fill="black" stroke="black" points="123.09,-162.5 113.09,-166 123.09,-169.5 123.09,-162.5"/>
</g>
<!-- Node6 -->
<g id="Node000006" class="node">
<title>Node6</title>
<g id="a_Node000006"><a xlink:href="group__ccs811__interface__driver.html" target="_top" xlink:title="ccs811 interface driver modules">
<polygon fill="white" stroke="#666666" points="269.38,-132 155.12,-132 155.12,-100 269.38,-100 269.38,-132"/>
<text xml:space="preserve" text-anchor="start" x="163.12" y="-118.5" font-family="Helvetica,sans-Serif" font-size="10.00">ccs811 interface driver</text>
<text xml:space="preserve" text-anchor="middle" x="212.25" y="-106.5" font-family="Helvetica,sans-Serif" font-size="10.00"> function</text>
</a>
</g>
</g>
<!-- Node1&#45;&gt;Node6 -->
<g id="edge5" class="edge">
<title>Node1&#45;&gt;Node6</title>
<path fill="none" stroke="black" d="M99.94,-151.99C118.69,-145.93 140.78,-138.79 160.31,-132.47"/>
<polygon fill="black" stroke="black" points="98.92,-148.65 90.48,-155.05 101.07,-155.31 98.92,-148.65"/>
</g>
<!-- Node2 -->
<g id="Node000002" class="node">
<title>Node2</title>
<g id="a_Node000002"><a xlink:href="group__ccs811__link__driver.html" target="_top" xlink:title="ccs811 link driver modules">
<polygon fill="white" stroke="#666666" points="258.12,-82 166.38,-82 166.38,-50 258.12,-50 258.12,-82"/>
<text xml:space="preserve" text-anchor="start" x="174.38" y="-68.5" font-family="Helvetica,sans-Serif" font-size="10.00">ccs811 link driver</text>
<text xml:space="preserve" text-anchor="middle" x="212.25" y="-56.5" font-family="Helvetica,sans-Serif" font-size="10.00"> function</text>
</a>
</g>
</g>
<!-- Node1&#45;&gt;Node2 -->
<g id="edge1" class="edge">
<title>Node1&#45;&gt;Node2</title>
<path fill="none" stroke="black" d="M75.08,-147.68C92.51,-131.16 119.97,-107.05 147.25,-91 153.11,-87.55 159.53,-84.4 165.98,-81.58"/>
<polygon fill="black" stroke="black" points="72.78,-145.03 68.02,-154.5 77.65,-150.07 72.78,-145.03"/>
</g>
<!-- Node8 -->
<g id="Node000008" class="node">
<title>Node8</title>
<g id="a_Node000008"><a xlink:href="group__ccs811__test__driver.html" target="_top" xlink:title="ccs811 test driver modules">
<polygon fill="white" stroke="#666666" points="258.88,-32 165.62,-32 165.62,0 258.88,0 258.88,-32"/>
<text xml:space="preserve" text-anchor="start" x="173.62" y="-18.5" font-family="Helvetica,sans-Serif" font-size="10.00">ccs811 test driver</text>
<text xml:space="preserve" text-anchor="middle" x="212.25" y="-6.5" font-family="Helvetica,sans-Serif" font-size="10.00"> function</text>
</a>
</g>
</g>
<!-- Node1&#45;&gt;Node8 -->
<g id="edge7" class="edge">
<title>Node1&#45;&gt;Node8</title>
<path fill="none" stroke="black" d="M66.55,-145.77C80.87,-118.47 109.78,-69.96 147.25,-41 152.72,-36.77 159,-33.17 165.44,-30.14"/>
<polygon fill="black" stroke="black" points="63.58,-143.88 62.16,-154.38 69.82,-147.06 63.58,-143.88"/>
</g>
</g>
</svg>
