<?xml version="1.0" encoding="UTF-8" standalone="no"?>
<!DOCTYPE svg PUBLIC "-//W3C//DTD SVG 1.1//EN"
 "http://www.w3.org/Graphics/SVG/1.1/DTD/svg11.dtd">
<!-- Generated by graphviz version 14.1.1 (20251213.1925)
 -->
<!-- Title: ccs811_update_test Pages: 1 -->
<svg width="284pt" height="894pt"
 viewBox="0.00 0.00 284.00 894.00" xmlns="http://www.w3.org/2000/svg" xmlns:xlink="http://www.w3.org/1999/xlink">
<g id="graph0" class="graph" transform="scale(1 1) rotate(0) translate(4 890)">
<title>ccs811_update_test</title>
<!-- Node1 -->
<g id="Node000001" class="node">
<title>Node1</title>
<g id="a_Node000001"><a xlink:title="update test">
<polygon fill="#999999" stroke="#666666" points="103,-465 0,-465 0,-445 103,-445 103,-465"/>
<text xml:space="preserve" text-anchor="middle" x="51.5" y="-451.5" font-family="Helvetica,sans-Serif" font-size="10.00">ccs811_update_test</text>
</a>
</g>
</g>
<!-- Node2 -->
<g id="Node000002" class="node">
<title>Node2</title>
<g id="a_Node000002"><a xlink:href="group__ccs811__app__driver.html#gaed6dedfd68d49ad7b9ea3e61afc363d4" target="_top" xlink:title="app firmware initialize">
<polygon fill="white" stroke="#666666" points="271.62,-886 143.12,-886 143.12,-866 271.62,-866 271.62,-886"/>
<text xml:space="preserve" text-anchor="middle" x="207.38" y="-872.5" font-family="Helvetica,sans-Serif" font-size="10.00">ccs811_app_firmware_init</text>
</a>
</g>
</g>
<!-- Node1&#45;&gt;Node2 -->
<g id="edge1_Node000001_Node000002" class="edge">
<title>Node1&#45;&gt;Node2</title>
<g id="a_edge1_Node000001_Node000002"><a xlink:title=" ">
<path fill="none" stroke="#63b8ff" d="M53.32,-465.48C57.98,-522.76 83.05,-797.41 139,-857 139.71,-857.76 140.45,-858.48 141.21,-859.18"/>
<polygon fill="#63b8ff" stroke="#63b8ff" points="138.81,-861.77 148.98,-864.75 142.89,-856.08 138.81,-861.77"/>
</a>
</g>
</g>
<!-- Node3 -->
<g id="Node000003" class="node">
<title>Node3</title>
<g id="a_Node000003"><a xlink:href="group__ccs811__app__driver.html#ga3290d5e977ffd3e51e73ee2aebaa1cc3" target="_top" xlink:title="app firmware update">
<polygon fill="white" stroke="#666666" points="262.62,-848 152.12,-848 152.12,-816 262.62,-816 262.62,-848"/>
<text xml:space="preserve" text-anchor="start" x="160.12" y="-834.5" font-family="Helvetica,sans-Serif" font-size="10.00">ccs811_app_firmware</text>
<text xml:space="preserve" text-anchor="middle" x="207.38" y="-822.5" font-family="Helvetica,sans-Serif" font-size="10.00">_update</text>
</a>
</g>
</g>
<!-- Node1&#45;&gt;Node3 -->
<g id="edge2_Node000001_Node000003" class="edge">
<title>Node1&#45;&gt;Node3</title>
<g id="a_edge2_Node000001_Node000003"><a xlink:title=" ">
<path fill="none" stroke="#63b8ff" d="M53.75,-465.48C60.22,-518.16 91.46,-753.69 139,-807 140.14,-808.28 141.36,-809.5 142.63,-810.65"/>
<polygon fill="#63b8ff" stroke="#63b8ff" points="140.45,-813.39 150.58,-816.49 144.6,-807.75 140.45,-813.39"/>
</a>
</g>
</g>
<!-- Node4 -->
<g id="Node000004" class="node">
<title>Node4</title>
<g id="a_Node000004"><a xlink:href="group__ccs811__base__driver.html#gad89976cfb03f35d579288af0c37905ca" target="_top" xlink:title="close the chip">
<polygon fill="white" stroke="#666666" points="245,-798 169.75,-798 169.75,-778 245,-778 245,-798"/>
<text xml:space="preserve" text-anchor="middle" x="207.38" y="-784.5" font-family="Helvetica,sans-Serif" font-size="10.00">ccs811_deinit</text>
</a>
</g>
</g>
<!-- Node1&#45;&gt;Node4 -->
<g id="edge3_Node000001_Node000004" class="edge">
<title>Node1&#45;&gt;Node4</title>
<g id="a_edge3_Node000001_Node000004"><a xlink:title=" ">
<path fill="none" stroke="#63b8ff" d="M51.99,-465.43C50.44,-509.22 50.51,-679.97 139,-769 144.41,-774.44 151.25,-778.36 158.49,-781.17"/>
<polygon fill="#63b8ff" stroke="#63b8ff" points="157.22,-784.44 167.81,-784.09 159.31,-777.76 157.22,-784.44"/>
</a>
</g>
</g>
<!-- Node5 -->
<g id="Node000005" class="node">
<title>Node5</title>
<g id="a_Node000005"><a xlink:href="group__ccs811__base__driver.html#gac7f482c7fdf3dd16a299b6e7d8a05e68" target="_top" xlink:title="get chip information">
<polygon fill="white" stroke="#666666" points="241.25,-760 173.5,-760 173.5,-740 241.25,-740 241.25,-760"/>
<text xml:space="preserve" text-anchor="middle" x="207.38" y="-746.5" font-family="Helvetica,sans-Serif" font-size="10.00">ccs811_info</text>
</a>
</g>
</g>
<!-- Node1&#45;&gt;Node5 -->
<g id="edge4_Node000001_Node000005" class="edge">
<title>Node1&#45;&gt;Node5</title>
<g id="a_edge4_Node000001_Node000005"><a xlink:title=" ">
<path fill="none" stroke="#63b8ff" d="M52.45,-465.27C52.83,-505.52 59.77,-654.02 139,-731 145.44,-737.25 153.76,-741.48 162.35,-744.33"/>
<polygon fill="#63b8ff" stroke="#63b8ff" points="161.23,-747.65 171.8,-746.86 163.04,-740.89 161.23,-747.65"/>
</a>
</g>
</g>
<!-- Node6 -->
<g id="Node000006" class="node">
<title>Node6</title>
<g id="a_Node000006"><a xlink:href="group__ccs811__interface__driver.html#gace5a95ff2c3906ad4a0c6191aa5361a1" target="_top" xlink:title="interface bin read">
<polygon fill="white" stroke="#666666" points="273.12,-722 141.62,-722 141.62,-702 273.12,-702 273.12,-722"/>
<text xml:space="preserve" text-anchor="middle" x="207.38" y="-708.5" font-family="Helvetica,sans-Serif" font-size="10.00">ccs811_interface_bin_read</text>
</a>
</g>
</g>
<!-- Node1&#45;&gt;Node6 -->
<g id="edge5_Node000001_Node000006" class="edge">
<title>Node1&#45;&gt;Node6</title>
<g id="a_edge5_Node000001_Node000006"><a xlink:title=" ">
<path fill="none" stroke="#63b8ff" d="M53.04,-465.37C55.55,-502.21 69.1,-628.07 139,-693 140.05,-693.98 141.15,-694.9 142.29,-695.78"/>
<polygon fill="#63b8ff" stroke="#63b8ff" points="140.07,-698.52 150.4,-700.85 143.77,-692.58 140.07,-698.52"/>
</a>
</g>
</g>
<!-- Node7 -->
<g id="Node000007" class="node">
<title>Node7</title>
<g id="a_Node000007"><a xlink:href="group__ccs811__interface__driver.html#ga8ebe9f039994c6d86030eeab320c3c4e" target="_top" xlink:title="interface bin read deinit">
<polygon fill="white" stroke="#666666" points="261.12,-684 153.62,-684 153.62,-652 261.12,-652 261.12,-684"/>
<text xml:space="preserve" text-anchor="start" x="161.62" y="-670.5" font-family="Helvetica,sans-Serif" font-size="10.00">ccs811_interface_bin</text>
<text xml:space="preserve" text-anchor="middle" x="207.38" y="-658.5" font-family="Helvetica,sans-Serif" font-size="10.00">_read_deinit</text>
</a>
</g>
</g>
<!-- Node1&#45;&gt;Node7 -->
<g id="edge6_Node000001_Node000007" class="edge">
<title>Node1&#45;&gt;Node7</title>
<g id="a_edge6_Node000001_Node000007"><a xlink:title=" ">
<path fill="none" stroke="#63b8ff" d="M54.34,-465.16C60.48,-496.27 83.14,-591.22 139,-643 140.45,-644.34 141.97,-645.61 143.56,-646.82"/>
<polygon fill="#63b8ff" stroke="#63b8ff" points="141.66,-649.75 151.97,-652.19 145.43,-643.86 141.66,-649.75"/>
</a>
</g>
</g>
<!-- Node8 -->
<g id="Node000008" class="node">
<title>Node8</title>
<g id="a_Node000008"><a xlink:href="group__ccs811__interface__driver.html#gad7512710212add67d77280f089144ad0" target="_top" xlink:title="interface bin read init">
<polygon fill="white" stroke="#666666" points="261.12,-634 153.62,-634 153.62,-602 261.12,-602 261.12,-634"/>
<text xml:space="preserve" text-anchor="start" x="161.62" y="-620.5" font-family="Helvetica,sans-Serif" font-size="10.00">ccs811_interface_bin</text>
<text xml:space="preserve" text-anchor="middle" x="207.38" y="-608.5" font-family="Helvetica,sans-Serif" font-size="10.00">_read_init</text>
</a>
</g>
</g>
<!-- Node1&#45;&gt;Node8 -->
<g id="edge7_Node000001_Node000008" class="edge">
<title>Node1&#45;&gt;Node8</title>
<g id="a_edge7_Node000001_Node000008"><a xlink:title=" ">
<path fill="none" stroke="#63b8ff" d="M56.22,-465.26C65.9,-490.58 94.26,-556.59 139,-593 140.5,-594.22 142.06,-595.38 143.67,-596.49"/>
<polygon fill="#63b8ff" stroke="#63b8ff" points="141.7,-599.39 152.09,-601.49 145.28,-593.37 141.7,-599.39"/>
</a>
</g>
</g>
<!-- Node9 -->
<g id="Node000009" class="node">
<title>Node9</title>
<g id="a_Node000009"><a xlink:href="group__ccs811__interface__driver.html#ga14070bef38572f69f538b74d60691289" target="_top" xlink:title="interface print format data">
<polygon fill="white" stroke="#666666" points="267.88,-584 146.88,-584 146.88,-552 267.88,-552 267.88,-584"/>
<text xml:space="preserve" text-anchor="start" x="154.88" y="-570.5" font-family="Helvetica,sans-Serif" font-size="10.00">ccs811_interface_debug</text>
<text xml:space="preserve" text-anchor="middle" x="207.38" y="-558.5" font-family="Helvetica,sans-Serif" font-size="10.00">_print</text>
</a>
</g>
</g>
<!-- Node1&#45;&gt;Node9 -->
<g id="edge8_Node000001_Node000009" class="edge">
<title>Node1&#45;&gt;Node9</title>
<g id="a_edge8_Node000001_Node000009"><a xlink:title=" ">
<path fill="none" stroke="#63b8ff" d="M60.19,-465.41C74.06,-483.52 105.01,-520.99 139,-543 140.85,-544.2 142.76,-545.34 144.72,-546.45"/>
<polygon fill="#63b8ff" stroke="#63b8ff" points="142.97,-549.49 153.47,-550.91 146.15,-543.25 142.97,-549.49"/>
</a>
</g>
</g>
<!-- Node10 -->
<g id="Node000010" class="node">
<title>Node10</title>
<g id="a_Node000010"><a xlink:href="group__ccs811__interface__driver.html#gafe1d934a3bdad969801d57847f08ddf8" target="_top" xlink:title="interface delay ms">
<polygon fill="white" stroke="#666666" points="275.75,-534 139,-534 139,-514 275.75,-514 275.75,-534"/>
<text xml:space="preserve" text-anchor="middle" x="207.38" y="-520.5" font-family="Helvetica,sans-Serif" font-size="10.00">ccs811_interface_delay_ms</text>
</a>
</g>
</g>
<!-- Node1&#45;&gt;Node10 -->
<g id="edge9_Node000001_Node000010" class="edge">
<title>Node1&#45;&gt;Node10</title>
<g id="a_edge9_Node000001_Node000010"><a xlink:title=" ">
<path fill="none" stroke="#63b8ff" d="M67.83,-465.44C84.66,-476.53 112.79,-493.94 139,-505 143.28,-506.81 147.79,-508.5 152.36,-510.07"/>
<polygon fill="#63b8ff" stroke="#63b8ff" points="151.02,-513.32 161.61,-513.05 153.16,-506.65 151.02,-513.32"/>
</a>
</g>
</g>
<!-- Node11 -->
<g id="Node000011" class="node">
<title>Node11</title>
<g id="a_Node000011"><a xlink:href="group__ccs811__interface__driver.html#ga1940b894998049e15a749630018d5cda" target="_top" xlink:title="interface gpio reset deinit">
<polygon fill="white" stroke="#666666" points="263.75,-496 151,-496 151,-464 263.75,-464 263.75,-496"/>
<text xml:space="preserve" text-anchor="start" x="159" y="-482.5" font-family="Helvetica,sans-Serif" font-size="10.00">ccs811_interface_gpio</text>
<text xml:space="preserve" text-anchor="middle" x="207.38" y="-470.5" font-family="Helvetica,sans-Serif" font-size="10.00">_reset_deinit</text>
</a>
</g>
</g>
<!-- Node1&#45;&gt;Node11 -->
<g id="edge10_Node000001_Node000011" class="edge">
<title>Node1&#45;&gt;Node11</title>
<g id="a_edge10_Node000001_Node000011"><a xlink:title=" ">
<path fill="none" stroke="#63b8ff" d="M103.31,-463.26C114.91,-465.14 127.4,-467.17 139.55,-469.14"/>
<polygon fill="#63b8ff" stroke="#63b8ff" points="138.65,-472.54 149.08,-470.69 139.77,-465.63 138.65,-472.54"/>
</a>
</g>
</g>
<!-- Node12 -->
<g id="Node000012" class="node">
<title>Node12</title>
<g id="a_Node000012"><a xlink:href="group__ccs811__interface__driver.html#ga037d95a5696a1ec014937d01c959d340" target="_top" xlink:title="interface gpio reset init">
<polygon fill="white" stroke="#666666" points="263.75,-446 151,-446 151,-414 263.75,-414 263.75,-446"/>
<text xml:space="preserve" text-anchor="start" x="159" y="-432.5" font-family="Helvetica,sans-Serif" font-size="10.00">ccs811_interface_gpio</text>
<text xml:space="preserve" text-anchor="middle" x="207.38" y="-420.5" font-family="Helvetica,sans-Serif" font-size="10.00">_reset_init</text>
</a>
</g>
</g>
<!-- Node1&#45;&gt;Node12 -->
<g id="edge11_Node000001_Node000012" class="edge">
<title>Node1&#45;&gt;Node12</title>
<g id="a_edge11_Node000001_Node000012"><a xlink:title=" ">
<path fill="none" stroke="#63b8ff" d="M103.31,-446.74C114.91,-444.86 127.4,-442.83 139.55,-440.86"/>
<polygon fill="#63b8ff" stroke="#63b8ff" points="139.77,-444.37 149.08,-439.31 138.65,-437.46 139.77,-444.37"/>
</a>
</g>
</g>
<!-- Node13 -->
<g id="Node000013" class="node">
<title>Node13</title>
<g id="a_Node000013"><a xlink:href="group__ccs811__interface__driver.html#ga1f2673e4466c68cd515c87b293b32612" target="_top" xlink:title="interface gpio reset write">
<polygon fill="white" stroke="#666666" points="263.75,-396 151,-396 151,-364 263.75,-364 263.75,-396"/>
<text xml:space="preserve" text-anchor="start" x="159" y="-382.5" font-family="Helvetica,sans-Serif" font-size="10.00">ccs811_interface_gpio</text>
<text xml:space="preserve" text-anchor="middle" x="207.38" y="-370.5" font-family="Helvetica,sans-Serif" font-size="10.00">_reset_write</text>
</a>
</g>
</g>
<!-- Node1&#45;&gt;Node13 -->
<g id="edge12_Node000001_Node000013" class="edge">
<title>Node1&#45;&gt;Node13</title>
<g id="a_edge12_Node000001_Node000013"><a xlink:title=" ">
<path fill="none" stroke="#63b8ff" d="M68.64,-444.56C85.69,-433.81 113.57,-416.96 139,-405 142.06,-403.56 145.23,-402.14 148.45,-400.76"/>
<polygon fill="#63b8ff" stroke="#63b8ff" points="149.52,-404.11 157.44,-397.06 146.86,-397.63 149.52,-404.11"/>
</a>
</g>
</g>
<!-- Node14 -->
<g id="Node000014" class="node">
<title>Node14</title>
<g id="a_Node000014"><a xlink:href="group__ccs811__interface__driver.html#gae5bc4a352fff915a73a708fc634c47be" target="_top" xlink:title="interface gpio wake deinit">
<polygon fill="white" stroke="#666666" points="263.75,-346 151,-346 151,-314 263.75,-314 263.75,-346"/>
<text xml:space="preserve" text-anchor="start" x="159" y="-332.5" font-family="Helvetica,sans-Serif" font-size="10.00">ccs811_interface_gpio</text>
<text xml:space="preserve" text-anchor="middle" x="207.38" y="-320.5" font-family="Helvetica,sans-Serif" font-size="10.00">_wake_deinit</text>
</a>
</g>
</g>
<!-- Node1&#45;&gt;Node14 -->
<g id="edge13_Node000001_Node000014" class="edge">
<title>Node1&#45;&gt;Node14</title>
<g id="a_edge13_Node000001_Node000014"><a xlink:title=" ">
<path fill="none" stroke="#63b8ff" d="M58.82,-444.71C71.6,-424.72 102.41,-380.38 139,-355 140.59,-353.9 142.23,-352.84 143.91,-351.82"/>
<polygon fill="#63b8ff" stroke="#63b8ff" points="145.44,-354.97 152.58,-347.15 142.12,-348.81 145.44,-354.97"/>
</a>
</g>
</g>
<!-- Node15 -->
<g id="Node000015" class="node">
<title>Node15</title>
<g id="a_Node000015"><a xlink:href="group__ccs811__interface__driver.html#ga8487f29343839870a30084aaaf6ba772" target="_top" xlink:title="interface gpio wake init">
<polygon fill="white" stroke="#666666" points="263.75,-296 151,-296 151,-264 263.75,-264 263.75,-296"/>
<text xml:space="preserve" text-anchor="start" x="159" y="-282.5" font-family="Helvetica,sans-Serif" font-size="10.00">ccs811_interface_gpio</text>
<text xml:space="preserve" text-anchor="middle" x="207.38" y="-270.5" font-family="Helvetica,sans-Serif" font-size="10.00">_wake_init</text>
</a>
</g>
</g>
<!-- Node1&#45;&gt;Node15 -->
<g id="edge14_Node000001_Node000015" class="edge">
<title>Node1&#45;&gt;Node15</title>
<g id="a_edge14_Node000001_Node000015"><a xlink:title=" ">
<path fill="none" stroke="#63b8ff" d="M55.7,-444.64C64.51,-417.74 91.7,-344.97 139,-305 139.95,-304.19 140.93,-303.41 141.94,-302.66"/>
<polygon fill="#63b8ff" stroke="#63b8ff" points="143.76,-305.65 150.29,-297.3 139.98,-299.76 143.76,-305.65"/>
</a>
</g>
</g>
<!-- Node16 -->
<g id="Node000016" class="node">
<title>Node16</title>
<g id="a_Node000016"><a xlink:href="group__ccs811__interface__driver.html#ga8cb32602d286e0c370d46fe69b9511a0" target="_top" xlink:title="interface gpio wake write">
<polygon fill="white" stroke="#666666" points="263.75,-246 151,-246 151,-214 263.75,-214 263.75,-246"/>
<text xml:space="preserve" text-anchor="start" x="159" y="-232.5" font-family="Helvetica,sans-Serif" font-size="10.00">ccs811_interface_gpio</text>
<text xml:space="preserve" text-anchor="middle" x="207.38" y="-220.5" font-family="Helvetica,sans-Serif" font-size="10.00">_wake_write</text>
</a>
</g>
</g>
<!-- Node1&#45;&gt;Node16 -->
<g id="edge15_Node000001_Node000016" class="edge">
<title>Node1&#45;&gt;Node16</title>
<g id="a_edge15_Node000001_Node000016"><a xlink:title=" ">
<path fill="none" stroke="#63b8ff" d="M54.05,-444.66C59.48,-412.08 80.54,-310.45 139,-255 139.88,-254.16 140.8,-253.35 141.74,-252.57"/>
<polygon fill="#63b8ff" stroke="#63b8ff" points="143.39,-255.68 149.58,-247.09 139.38,-249.94 143.39,-255.68"/>
</a>
</g>
</g>
<!-- Node17 -->
<g id="Node000017" class="node">
<title>Node17</title>
<g id="a_Node000017"><a xlink:href="group__ccs811__interface__driver.html#ga41d18082320d728b730286dd9196e3b8" target="_top" xlink:title="interface iic bus deinit">
<polygon fill="white" stroke="#666666" points="259.62,-196 155.12,-196 155.12,-164 259.62,-164 259.62,-196"/>
<text xml:space="preserve" text-anchor="start" x="163.12" y="-182.5" font-family="Helvetica,sans-Serif" font-size="10.00">ccs811_interface_iic</text>
<text xml:space="preserve" text-anchor="middle" x="207.38" y="-170.5" font-family="Helvetica,sans-Serif" font-size="10.00">_deinit</text>
</a>
</g>
</g>
<!-- Node1&#45;&gt;Node17 -->
<g id="edge16_Node000001_Node000017" class="edge">
<title>Node1&#45;&gt;Node17</title>
<g id="a_edge16_Node000001_Node000017"><a xlink:title=" ">
<path fill="none" stroke="#63b8ff" d="M53.04,-444.58C55.55,-406.94 69.15,-276.41 139,-205 140.98,-202.97 143.15,-201.1 145.44,-199.39"/>
<polygon fill="#63b8ff" stroke="#63b8ff" points="146.96,-202.57 153.57,-194.29 143.24,-196.64 146.96,-202.57"/>
</a>
</g>
</g>
<!-- Node18 -->
<g id="Node000018" class="node">
<title>Node18</title>
<g id="a_Node000018"><a xlink:href="group__ccs811__interface__driver.html#gafbc4d459c2c97a7c1776efd2130135c8" target="_top" xlink:title="interface iic bus init">
<polygon fill="white" stroke="#666666" points="268.62,-146 146.12,-146 146.12,-126 268.62,-126 268.62,-146"/>
<text xml:space="preserve" text-anchor="middle" x="207.38" y="-132.5" font-family="Helvetica,sans-Serif" font-size="10.00">ccs811_interface_iic_init</text>
</a>
</g>
</g>
<!-- Node1&#45;&gt;Node18 -->
<g id="edge17_Node000001_Node000018" class="edge">
<title>Node1&#45;&gt;Node18</title>
<g id="a_edge17_Node000001_Node000018"><a xlink:title=" ">
<path fill="none" stroke="#63b8ff" d="M52.15,-444.74C51.29,-402.4 53.85,-239.65 139,-155 139.75,-154.25 140.54,-153.53 141.34,-152.84"/>
<polygon fill="#63b8ff" stroke="#63b8ff" points="143.22,-155.79 149.53,-147.28 139.29,-150 143.22,-155.79"/>
</a>
</g>
</g>
<!-- Node19 -->
<g id="Node000019" class="node">
<title>Node19</title>
<g id="a_Node000019"><a xlink:href="group__ccs811__interface__driver.html#gac8172680dfcaa2eabd5c84f76bd432e4" target="_top" xlink:title="interface iic bus read">
<polygon fill="white" stroke="#666666" points="271.62,-108 143.12,-108 143.12,-88 271.62,-88 271.62,-108"/>
<text xml:space="preserve" text-anchor="middle" x="207.38" y="-94.5" font-family="Helvetica,sans-Serif" font-size="10.00">ccs811_interface_iic_read</text>
</a>
</g>
</g>
<!-- Node1&#45;&gt;Node19 -->
<g id="edge18_Node000001_Node000019" class="edge">
<title>Node1&#45;&gt;Node19</title>
<g id="a_edge18_Node000001_Node000019"><a xlink:title=" ">
<path fill="none" stroke="#63b8ff" d="M53.77,-444.53C60.24,-392.9 91.09,-166.09 139,-117 139.72,-116.26 140.47,-115.54 141.25,-114.86"/>
<polygon fill="#63b8ff" stroke="#63b8ff" points="142.92,-117.96 149.11,-109.37 138.91,-112.22 142.92,-117.96"/>
</a>
</g>
</g>
<!-- Node20 -->
<g id="Node000020" class="node">
<title>Node20</title>
<g id="a_Node000020"><a xlink:href="group__ccs811__interface__driver.html#ga318ad0f7b290313cb3f326655d5800e2" target="_top" xlink:title="interface iic bus write">
<polygon fill="white" stroke="#666666" points="259.62,-70 155.12,-70 155.12,-38 259.62,-38 259.62,-70"/>
<text xml:space="preserve" text-anchor="start" x="163.12" y="-56.5" font-family="Helvetica,sans-Serif" font-size="10.00">ccs811_interface_iic</text>
<text xml:space="preserve" text-anchor="middle" x="207.38" y="-44.5" font-family="Helvetica,sans-Serif" font-size="10.00">_write</text>
</a>
</g>
</g>
<!-- Node1&#45;&gt;Node20 -->
<g id="edge19_Node000001_Node000020" class="edge">
<title>Node1&#45;&gt;Node20</title>
<g id="a_edge19_Node000001_Node000020"><a xlink:title=" ">
<path fill="none" stroke="#63b8ff" d="M53.57,-444.55C59.36,-389.8 88.6,-136.37 139,-79 140.91,-76.83 143.03,-74.84 145.3,-73.03"/>
<polygon fill="#63b8ff" stroke="#63b8ff" points="146.99,-76.1 153.43,-67.69 143.15,-70.25 146.99,-76.1"/>
</a>
</g>
</g>
<!-- Node21 -->
<g id="Node000021" class="node">
<title>Node21</title>
<g id="a_Node000021"><a xlink:href="group__ccs811__base__driver.html#ga0266030b9edaed00edd029d7b0622bdb" target="_top" xlink:title="set address pin">
<polygon fill="white" stroke="#666666" points="261.12,-20 153.62,-20 153.62,0 261.12,0 261.12,-20"/>
<text xml:space="preserve" text-anchor="middle" x="207.38" y="-6.5" font-family="Helvetica,sans-Serif" font-size="10.00">ccs811_set_addr_pin</text>
</a>
</g>
</g>
<!-- Node1&#45;&gt;Node21 -->
<g id="edge20_Node000001_Node000021" class="edge">
<title>Node1&#45;&gt;Node21</title>
<g id="a_edge20_Node000001_Node000021"><a xlink:title=" ">
<path fill="none" stroke="#63b8ff" d="M53.17,-444.68C57.19,-385.78 79.96,-92.61 139,-29 140.52,-27.36 142.17,-25.86 143.92,-24.49"/>
<polygon fill="#63b8ff" stroke="#63b8ff" points="145.46,-27.65 152.12,-19.41 141.77,-21.7 145.46,-27.65"/>
</a>
</g>
</g>
</g>
</svg>
